<svg width="582" height="132" viewBox="0 0 582 132" fill="none" xmlns="http://www.w3.org/2000/svg">
<g clip-path="url(#clip0_44_14974)">
<rect width="582" height="136" rx="10" fill="white"/>
<rect x="48" y="26" width="16" height="16" rx="8" fill="#3563E9" fill-opacity="0.3"/>
<circle cx="56" cy="34" r="4" fill="#3563E9"/>
<path d="M73.232 41V29.08H77.568C78.368 29.08 79.072 29.2293 79.68 29.528C80.2987 29.816 80.7787 30.2427 81.12 30.808C81.4613 31.3627 81.632 32.0293 81.632 32.808C81.632 33.576 81.456 34.2373 81.104 34.792C80.7627 35.3467 80.288 35.7733 79.68 36.072C79.072 36.3707 78.368 36.52 77.568 36.52H75.12V41H73.232ZM75.12 34.84H77.616C78.0427 34.84 78.416 34.7547 78.736 34.584C79.056 34.4133 79.3067 34.1787 79.488 33.88C79.6693 33.5707 79.76 33.208 79.76 32.792C79.76 32.376 79.6693 32.0187 79.488 31.72C79.3067 31.4107 79.056 31.176 78.736 31.016C78.416 30.8453 78.0427 30.76 77.616 30.76H75.12V34.84ZM83.0798 41V32.344H84.8878V41H83.0798ZM83.0798 31.16V29.08H84.8878V31.16H83.0798ZM90.7936 41.192C89.9296 41.192 89.1616 40.9947 88.4896 40.6C87.8283 40.1947 87.3003 39.6507 86.9056 38.968C86.5216 38.2853 86.3296 37.512 86.3296 36.648C86.3296 35.7947 86.5216 35.0267 86.9056 34.344C87.2896 33.6613 87.8176 33.128 88.4896 32.744C89.1616 32.3493 89.9296 32.152 90.7936 32.152C91.3803 32.152 91.9296 32.2587 92.4416 32.472C92.9536 32.6747 93.3963 32.9573 93.7696 33.32C94.1536 33.6827 94.4363 34.104 94.6176 34.584L93.0336 35.32C92.8523 34.872 92.559 34.5147 92.1536 34.248C91.759 33.9707 91.3056 33.832 90.7936 33.832C90.303 33.832 89.8603 33.9547 89.4656 34.2C89.0816 34.4347 88.7776 34.7707 88.5536 35.208C88.3296 35.6347 88.2176 36.12 88.2176 36.664C88.2176 37.208 88.3296 37.6987 88.5536 38.136C88.7776 38.5627 89.0816 38.8987 89.4656 39.144C89.8603 39.3893 90.303 39.512 90.7936 39.512C91.3163 39.512 91.7696 39.3787 92.1536 39.112C92.5483 38.8347 92.8416 38.4667 93.0336 38.008L94.6176 38.76C94.447 39.2187 94.1696 39.6347 93.7856 40.008C93.4123 40.3707 92.9696 40.6587 92.4576 40.872C91.9456 41.0853 91.391 41.192 90.7936 41.192ZM96.0648 41V28.888H97.8728V37L97.1688 36.824L101.505 32.344H103.761L100.497 35.816L103.905 41H101.825L98.7848 36.408L99.8568 36.264L97.2968 38.984L97.8728 37.784V41H96.0648ZM107.572 37.464V35.864H113.972V37.464H107.572ZM123.159 41.192C122.274 41.192 121.484 41.0053 120.791 40.632C120.108 40.2587 119.57 39.7467 119.175 39.096C118.791 38.4453 118.599 37.704 118.599 36.872V29.08H120.487V36.792C120.487 37.3147 120.599 37.7787 120.823 38.184C121.058 38.5893 121.372 38.904 121.767 39.128C122.172 39.352 122.636 39.464 123.159 39.464C123.692 39.464 124.156 39.352 124.551 39.128C124.956 38.904 125.271 38.5893 125.495 38.184C125.73 37.7787 125.847 37.3147 125.847 36.792V29.08H127.719V36.872C127.719 37.704 127.527 38.4453 127.143 39.096C126.759 39.7467 126.22 40.2587 125.527 40.632C124.844 41.0053 124.055 41.192 123.159 41.192ZM129.59 44.2V32.344H131.318V34.136L131.11 33.72C131.43 33.2293 131.856 32.8453 132.39 32.568C132.923 32.2907 133.531 32.152 134.214 32.152C135.035 32.152 135.771 32.3493 136.422 32.744C137.083 33.1387 137.6 33.6773 137.974 34.36C138.358 35.0427 138.55 35.8107 138.55 36.664C138.55 37.5173 138.358 38.2853 137.974 38.968C137.6 39.6507 137.088 40.1947 136.438 40.6C135.787 40.9947 135.046 41.192 134.214 41.192C133.542 41.192 132.928 41.0533 132.374 40.776C131.83 40.4987 131.408 40.0987 131.11 39.576L131.398 39.24V44.2H129.59ZM134.038 39.512C134.55 39.512 135.003 39.3893 135.398 39.144C135.792 38.8987 136.102 38.5627 136.326 38.136C136.56 37.6987 136.678 37.208 136.678 36.664C136.678 36.12 136.56 35.6347 136.326 35.208C136.102 34.7813 135.792 34.4453 135.398 34.2C135.003 33.9547 134.55 33.832 134.038 33.832C133.536 33.832 133.083 33.9547 132.678 34.2C132.283 34.4453 131.968 34.7813 131.734 35.208C131.51 35.6347 131.398 36.12 131.398 36.664C131.398 37.208 131.51 37.6987 131.734 38.136C131.968 38.5627 132.283 38.8987 132.678 39.144C133.083 39.3893 133.536 39.512 134.038 39.512Z" fill="#1A202C"/>
<path d="M49.152 77V65.08H51.328V75.08H56.432V77H49.152ZM61.5995 77.192C60.7462 77.192 59.9675 76.9947 59.2635 76.6C58.5702 76.2053 58.0155 75.6667 57.5995 74.984C57.1942 74.3013 56.9915 73.5227 56.9915 72.648C56.9915 71.7733 57.1942 70.9947 57.5995 70.312C58.0155 69.6293 58.5702 69.0907 59.2635 68.696C59.9568 68.3013 60.7355 68.104 61.5995 68.104C62.4528 68.104 63.2262 68.3013 63.9195 68.696C64.6128 69.0907 65.1622 69.6293 65.5675 70.312C65.9835 70.984 66.1915 71.7627 66.1915 72.648C66.1915 73.5227 65.9835 74.3013 65.5675 74.984C65.1515 75.6667 64.5968 76.2053 63.9035 76.6C63.2102 76.9947 62.4422 77.192 61.5995 77.192ZM61.5995 75.272C62.0688 75.272 62.4795 75.16 62.8315 74.936C63.1942 74.712 63.4768 74.4027 63.6795 74.008C63.8928 73.6027 63.9995 73.1493 63.9995 72.648C63.9995 72.136 63.8928 71.688 63.6795 71.304C63.4768 70.9093 63.1942 70.6 62.8315 70.376C62.4795 70.1413 62.0688 70.024 61.5995 70.024C61.1195 70.024 60.6982 70.1413 60.3355 70.376C59.9728 70.6 59.6848 70.9093 59.4715 71.304C59.2688 71.688 59.1675 72.136 59.1675 72.648C59.1675 73.1493 59.2688 73.6027 59.4715 74.008C59.6848 74.4027 59.9728 74.712 60.3355 74.936C60.6982 75.16 61.1195 75.272 61.5995 75.272ZM71.653 77.192C70.789 77.192 70.0103 76.9947 69.317 76.6C68.6343 76.1947 68.0957 75.6507 67.701 74.968C67.3063 74.2747 67.109 73.496 67.109 72.632C67.109 71.768 67.3063 70.9947 67.701 70.312C68.0957 69.6293 68.6343 69.0907 69.317 68.696C70.0103 68.3013 70.789 68.104 71.653 68.104C72.2717 68.104 72.8477 68.216 73.381 68.44C73.9143 68.6533 74.373 68.952 74.757 69.336C75.1517 69.7093 75.4343 70.1573 75.605 70.68L73.765 71.48C73.605 71.0427 73.333 70.6907 72.949 70.424C72.5757 70.1573 72.1437 70.024 71.653 70.024C71.1943 70.024 70.7837 70.136 70.421 70.36C70.069 70.584 69.7917 70.8933 69.589 71.288C69.3863 71.6827 69.285 72.136 69.285 72.648C69.285 73.16 69.3863 73.6133 69.589 74.008C69.7917 74.4027 70.069 74.712 70.421 74.936C70.7837 75.16 71.1943 75.272 71.653 75.272C72.1543 75.272 72.5917 75.1387 72.965 74.872C73.3383 74.6053 73.605 74.248 73.765 73.8L75.605 74.632C75.4343 75.1227 75.157 75.5653 74.773 75.96C74.389 76.344 73.9303 76.648 73.397 76.872C72.8637 77.0853 72.2823 77.192 71.653 77.192ZM79.4841 77.192C78.8761 77.192 78.3481 77.0907 77.9001 76.888C77.4521 76.6853 77.1055 76.3973 76.8601 76.024C76.6148 75.64 76.4921 75.1973 76.4921 74.696C76.4921 74.216 76.5988 73.7893 76.8121 73.416C77.0255 73.032 77.3561 72.712 77.8041 72.456C78.2521 72.2 78.8175 72.0187 79.5001 71.912L82.3481 71.448V73.048L79.9001 73.464C79.4841 73.5387 79.1748 73.672 78.9721 73.864C78.7695 74.056 78.6681 74.3067 78.6681 74.616C78.6681 74.9147 78.7801 75.1547 79.0041 75.336C79.2388 75.5067 79.5268 75.592 79.8681 75.592C80.3055 75.592 80.6895 75.5013 81.0201 75.32C81.3615 75.128 81.6228 74.8667 81.8041 74.536C81.9961 74.2053 82.0921 73.8427 82.0921 73.448V71.208C82.0921 70.8347 81.9428 70.5253 81.6441 70.28C81.3561 70.024 80.9721 69.896 80.4921 69.896C80.0441 69.896 79.6441 70.0187 79.2921 70.264C78.9508 70.4987 78.7001 70.8133 78.5401 71.208L76.8281 70.376C76.9988 69.9173 77.2655 69.5227 77.6281 69.192C78.0015 68.8507 78.4388 68.584 78.9401 68.392C79.4415 68.2 79.9855 68.104 80.5721 68.104C81.2868 68.104 81.9161 68.2373 82.4601 68.504C83.0041 68.76 83.4255 69.1227 83.7241 69.592C84.0335 70.0507 84.1881 70.5893 84.1881 71.208V77H82.2041V75.512L82.6521 75.48C82.4281 75.8533 82.1615 76.168 81.8521 76.424C81.5428 76.6693 81.1908 76.8613 80.7961 77C80.4015 77.128 79.9641 77.192 79.4841 77.192ZM89.6171 77.096C88.6358 77.096 87.8731 76.8293 87.3291 76.296C86.7958 75.752 86.5291 74.9893 86.5291 74.008V70.168H85.0251V68.296H85.1851C85.6118 68.296 85.9425 68.184 86.1771 67.96C86.4118 67.736 86.5291 67.4107 86.5291 66.984V66.312H88.6251V68.296H90.6251V70.168H88.6251V73.896C88.6251 74.184 88.6731 74.4293 88.7691 74.632C88.8758 74.8347 89.0358 74.9893 89.2491 75.096C89.4731 75.2027 89.7558 75.256 90.0971 75.256C90.1718 75.256 90.2571 75.2507 90.3531 75.24C90.4598 75.2293 90.5611 75.2187 90.6571 75.208V77C90.5078 77.0213 90.3371 77.0427 90.1451 77.064C89.9531 77.0853 89.7771 77.096 89.6171 77.096ZM91.9385 77V68.296H94.0345V77H91.9385ZM91.9385 67.32V65.08H94.0345V67.32H91.9385ZM99.9058 77.192C99.0524 77.192 98.2738 76.9947 97.5698 76.6C96.8764 76.2053 96.3218 75.6667 95.9058 74.984C95.5004 74.3013 95.2978 73.5227 95.2978 72.648C95.2978 71.7733 95.5004 70.9947 95.9058 70.312C96.3218 69.6293 96.8764 69.0907 97.5698 68.696C98.2631 68.3013 99.0418 68.104 99.9058 68.104C100.759 68.104 101.532 68.3013 102.226 68.696C102.919 69.0907 103.468 69.6293 103.874 70.312C104.29 70.984 104.498 71.7627 104.498 72.648C104.498 73.5227 104.29 74.3013 103.874 74.984C103.458 75.6667 102.903 76.2053 102.21 76.6C101.516 76.9947 100.748 77.192 99.9058 77.192ZM99.9058 75.272C100.375 75.272 100.786 75.16 101.138 74.936C101.5 74.712 101.783 74.4027 101.986 74.008C102.199 73.6027 102.306 73.1493 102.306 72.648C102.306 72.136 102.199 71.688 101.986 71.304C101.783 70.9093 101.5 70.6 101.138 70.376C100.786 70.1413 100.375 70.024 99.9058 70.024C99.4258 70.024 99.0044 70.1413 98.6418 70.376C98.2791 70.6 97.9911 70.9093 97.7778 71.304C97.5751 71.688 97.4738 72.136 97.4738 72.648C97.4738 73.1493 97.5751 73.6027 97.7778 74.008C97.9911 74.4027 98.2791 74.712 98.6418 74.936C99.0044 75.16 99.4258 75.272 99.9058 75.272ZM105.767 77V68.296H107.735V70.008L107.575 69.704C107.778 69.1813 108.109 68.7867 108.567 68.52C109.037 68.2427 109.581 68.104 110.199 68.104C110.839 68.104 111.405 68.2427 111.895 68.52C112.397 68.7973 112.786 69.1867 113.063 69.688C113.341 70.1787 113.479 70.7493 113.479 71.4V77H111.383V71.896C111.383 71.512 111.309 71.1813 111.159 70.904C111.01 70.6267 110.802 70.4133 110.535 70.264C110.279 70.104 109.975 70.024 109.623 70.024C109.282 70.024 108.978 70.104 108.711 70.264C108.445 70.4133 108.237 70.6267 108.087 70.904C107.938 71.1813 107.863 71.512 107.863 71.896V77H105.767ZM118.244 77.192C117.316 77.192 116.505 76.9733 115.812 76.536C115.129 76.088 114.66 75.4853 114.404 74.728L115.972 73.976C116.196 74.4667 116.505 74.8507 116.9 75.128C117.305 75.4053 117.753 75.544 118.244 75.544C118.628 75.544 118.932 75.4587 119.156 75.288C119.38 75.1173 119.492 74.8933 119.492 74.616C119.492 74.4453 119.444 74.3067 119.348 74.2C119.262 74.0827 119.14 73.9867 118.98 73.912C118.83 73.8267 118.665 73.7573 118.484 73.704L117.06 73.304C116.324 73.0907 115.764 72.7653 115.38 72.328C115.006 71.8907 114.82 71.3733 114.82 70.776C114.82 70.2427 114.953 69.7787 115.22 69.384C115.497 68.9787 115.876 68.664 116.356 68.44C116.846 68.216 117.406 68.104 118.036 68.104C118.857 68.104 119.582 68.3013 120.212 68.696C120.841 69.0907 121.289 69.6453 121.556 70.36L119.956 71.112C119.806 70.7173 119.556 70.4027 119.204 70.168C118.852 69.9333 118.457 69.816 118.02 69.816C117.668 69.816 117.39 69.896 117.188 70.056C116.985 70.216 116.884 70.424 116.884 70.68C116.884 70.84 116.926 70.9787 117.012 71.096C117.097 71.2133 117.214 71.3093 117.364 71.384C117.524 71.4587 117.705 71.528 117.908 71.592L119.3 72.008C120.014 72.2213 120.564 72.5413 120.948 72.968C121.342 73.3947 121.54 73.9173 121.54 74.536C121.54 75.0587 121.401 75.5227 121.124 75.928C120.846 76.3227 120.462 76.632 119.972 76.856C119.481 77.08 118.905 77.192 118.244 77.192Z" fill="#1A202C"/>
<path d="M52.068 103.144C51.5 103.144 50.98 103.04 50.508 102.832C50.036 102.616 49.636 102.324 49.308 101.956C48.98 101.588 48.744 101.176 48.6 100.72L49.62 100.3C49.836 100.876 50.156 101.32 50.58 101.632C51.012 101.936 51.516 102.088 52.092 102.088C52.444 102.088 52.752 102.032 53.016 101.92C53.28 101.808 53.484 101.652 53.628 101.452C53.78 101.244 53.856 101.004 53.856 100.732C53.856 100.356 53.748 100.06 53.532 99.844C53.324 99.62 53.016 99.452 52.608 99.34L50.964 98.836C50.316 98.636 49.82 98.32 49.476 97.888C49.132 97.456 48.96 96.96 48.96 96.4C48.96 95.912 49.076 95.484 49.308 95.116C49.548 94.74 49.876 94.448 50.292 94.24C50.716 94.024 51.196 93.916 51.732 93.916C52.268 93.916 52.752 94.012 53.184 94.204C53.624 94.396 53.996 94.656 54.3 94.984C54.604 95.304 54.828 95.672 54.972 96.088L53.964 96.508C53.772 96.004 53.484 95.624 53.1 95.368C52.716 95.104 52.264 94.972 51.744 94.972C51.424 94.972 51.14 95.028 50.892 95.14C50.652 95.244 50.464 95.4 50.328 95.608C50.2 95.808 50.136 96.048 50.136 96.328C50.136 96.656 50.24 96.948 50.448 97.204C50.656 97.46 50.972 97.656 51.396 97.792L52.896 98.236C53.6 98.452 54.132 98.76 54.492 99.16C54.852 99.56 55.032 100.056 55.032 100.648C55.032 101.136 54.904 101.568 54.648 101.944C54.4 102.32 54.052 102.616 53.604 102.832C53.164 103.04 52.652 103.144 52.068 103.144ZM59.3578 103.144C58.7338 103.144 58.1778 102.996 57.6898 102.7C57.2018 102.404 56.8178 102 56.5378 101.488C56.2578 100.968 56.1178 100.388 56.1178 99.748C56.1178 99.1 56.2538 98.524 56.5258 98.02C56.8058 97.516 57.1818 97.12 57.6538 96.832C58.1338 96.536 58.6698 96.388 59.2618 96.388C59.7418 96.388 60.1658 96.476 60.5338 96.652C60.9098 96.82 61.2258 97.052 61.4818 97.348C61.7458 97.636 61.9458 97.968 62.0818 98.344C62.2258 98.712 62.2978 99.096 62.2978 99.496C62.2978 99.584 62.2898 99.684 62.2738 99.796C62.2658 99.9 62.2538 100 62.2378 100.096H56.9338V99.136H61.5898L61.0618 99.568C61.1338 99.152 61.0938 98.78 60.9418 98.452C60.7898 98.124 60.5658 97.864 60.2698 97.672C59.9738 97.48 59.6378 97.384 59.2618 97.384C58.8858 97.384 58.5418 97.48 58.2298 97.672C57.9178 97.864 57.6738 98.14 57.4978 98.5C57.3298 98.852 57.2618 99.272 57.2938 99.76C57.2618 100.232 57.3338 100.648 57.5098 101.008C57.6938 101.36 57.9498 101.636 58.2778 101.836C58.6138 102.028 58.9778 102.124 59.3698 102.124C59.8018 102.124 60.1658 102.024 60.4618 101.824C60.7578 101.624 60.9978 101.368 61.1818 101.056L62.1178 101.536C61.9898 101.832 61.7898 102.104 61.5178 102.352C61.2538 102.592 60.9378 102.784 60.5698 102.928C60.2098 103.072 59.8058 103.144 59.3578 103.144ZM63.5129 103V93.916H64.6289V103H63.5129ZM69.0966 103.144C68.4726 103.144 67.9166 102.996 67.4286 102.7C66.9406 102.404 66.5566 102 66.2766 101.488C65.9966 100.968 65.8566 100.388 65.8566 99.748C65.8566 99.1 65.9926 98.524 66.2646 98.02C66.5446 97.516 66.9206 97.12 67.3926 96.832C67.8726 96.536 68.4086 96.388 69.0006 96.388C69.4806 96.388 69.9046 96.476 70.2726 96.652C70.6486 96.82 70.9646 97.052 71.2206 97.348C71.4846 97.636 71.6846 97.968 71.8206 98.344C71.9646 98.712 72.0366 99.096 72.0366 99.496C72.0366 99.584 72.0286 99.684 72.0126 99.796C72.0046 99.9 71.9926 100 71.9766 100.096H66.6726V99.136H71.3286L70.8006 99.568C70.8726 99.152 70.8326 98.78 70.6806 98.452C70.5286 98.124 70.3046 97.864 70.0086 97.672C69.7126 97.48 69.3766 97.384 69.0006 97.384C68.6246 97.384 68.2806 97.48 67.9686 97.672C67.6566 97.864 67.4126 98.14 67.2366 98.5C67.0686 98.852 67.0006 99.272 67.0326 99.76C67.0006 100.232 67.0726 100.648 67.2486 101.008C67.4326 101.36 67.6886 101.636 68.0166 101.836C68.3526 102.028 68.7166 102.124 69.1086 102.124C69.5406 102.124 69.9046 102.024 70.2006 101.824C70.4966 101.624 70.7366 101.368 70.9206 101.056L71.8566 101.536C71.7286 101.832 71.5286 102.104 71.2566 102.352C70.9926 102.592 70.6766 102.784 70.3086 102.928C69.9486 103.072 69.5446 103.144 69.0966 103.144ZM76.2517 103.144C75.6197 103.144 75.0557 102.996 74.5597 102.7C74.0717 102.404 73.6877 102 73.4077 101.488C73.1277 100.976 72.9877 100.4 72.9877 99.76C72.9877 99.112 73.1277 98.536 73.4077 98.032C73.6877 97.528 74.0717 97.128 74.5597 96.832C75.0557 96.536 75.6197 96.388 76.2517 96.388C76.6757 96.388 77.0717 96.464 77.4397 96.616C77.8077 96.768 78.1317 96.972 78.4117 97.228C78.6917 97.484 78.8957 97.784 79.0237 98.128L78.0277 98.608C77.8757 98.272 77.6437 98 77.3317 97.792C77.0197 97.576 76.6597 97.468 76.2517 97.468C75.8597 97.468 75.5037 97.568 75.1837 97.768C74.8717 97.968 74.6237 98.24 74.4397 98.584C74.2557 98.928 74.1637 99.324 74.1637 99.772C74.1637 100.204 74.2557 100.596 74.4397 100.948C74.6237 101.292 74.8717 101.564 75.1837 101.764C75.5037 101.964 75.8597 102.064 76.2517 102.064C76.6597 102.064 77.0197 101.96 77.3317 101.752C77.6437 101.536 77.8757 101.252 78.0277 100.9L79.0237 101.404C78.8957 101.74 78.6917 102.04 78.4117 102.304C78.1317 102.56 77.8077 102.764 77.4397 102.916C77.0717 103.068 76.6757 103.144 76.2517 103.144ZM82.8701 103.072C82.2381 103.072 81.7501 102.892 81.4061 102.532C81.0701 102.172 80.9021 101.664 80.9021 101.008V97.6H79.7261V96.532H79.9661C80.2541 96.532 80.4821 96.444 80.6501 96.268C80.8181 96.092 80.9021 95.86 80.9021 95.572V95.044H82.0181V96.532H83.4701V97.6H82.0181V100.972C82.0181 101.188 82.0501 101.376 82.1141 101.536C82.1861 101.696 82.3021 101.824 82.4621 101.92C82.6221 102.008 82.8341 102.052 83.0981 102.052C83.1541 102.052 83.2221 102.048 83.3021 102.04C83.3901 102.032 83.4701 102.024 83.5421 102.016V103C83.4381 103.024 83.3221 103.04 83.1941 103.048C83.0661 103.064 82.9581 103.072 82.8701 103.072ZM86.9422 105.64C86.7982 105.64 86.6542 105.628 86.5102 105.604C86.3662 105.588 86.2302 105.552 86.1022 105.496V104.5C86.1902 104.508 86.2982 104.524 86.4262 104.548C86.5622 104.572 86.6942 104.584 86.8222 104.584C87.1982 104.584 87.4822 104.5 87.6742 104.332C87.8742 104.164 88.0622 103.88 88.2382 103.48L88.6462 102.508L88.6222 103.48L85.8622 96.532H87.0742L89.2222 102.052H88.8622L90.9982 96.532H92.2342L89.3182 103.768C89.1822 104.112 89.0062 104.428 88.7902 104.716C88.5822 105.004 88.3262 105.228 88.0222 105.388C87.7182 105.556 87.3582 105.64 86.9422 105.64ZM95.9418 103.144C95.3178 103.144 94.7538 103 94.2498 102.712C93.7458 102.416 93.3458 102.012 93.0498 101.5C92.7538 100.988 92.6058 100.408 92.6058 99.76C92.6058 99.112 92.7498 98.536 93.0378 98.032C93.3338 97.528 93.7338 97.128 94.2378 96.832C94.7418 96.536 95.3098 96.388 95.9418 96.388C96.5658 96.388 97.1298 96.536 97.6338 96.832C98.1378 97.12 98.5338 97.516 98.8218 98.02C99.1178 98.524 99.2658 99.104 99.2658 99.76C99.2658 100.416 99.1138 101 98.8098 101.512C98.5058 102.016 98.1018 102.416 97.5978 102.712C97.1018 103 96.5498 103.144 95.9418 103.144ZM95.9418 102.064C96.3418 102.064 96.7018 101.964 97.0218 101.764C97.3498 101.564 97.6058 101.288 97.7898 100.936C97.9818 100.584 98.0778 100.192 98.0778 99.76C98.0778 99.32 97.9818 98.932 97.7898 98.596C97.6058 98.252 97.3498 97.98 97.0218 97.78C96.7018 97.572 96.3418 97.468 95.9418 97.468C95.5338 97.468 95.1658 97.572 94.8378 97.78C94.5178 97.98 94.2618 98.252 94.0698 98.596C93.8778 98.932 93.7818 99.32 93.7818 99.76C93.7818 100.192 93.8778 100.584 94.0698 100.936C94.2618 101.288 94.5178 101.564 94.8378 101.764C95.1658 101.964 95.5338 102.064 95.9418 102.064ZM102.773 103.144C102.309 103.144 101.889 103.036 101.513 102.82C101.145 102.604 100.857 102.304 100.649 101.92C100.449 101.528 100.349 101.08 100.349 100.576V96.532H101.465V100.456C101.465 100.776 101.529 101.056 101.657 101.296C101.793 101.536 101.977 101.724 102.209 101.86C102.449 101.996 102.721 102.064 103.025 102.064C103.329 102.064 103.597 101.996 103.829 101.86C104.069 101.724 104.253 101.528 104.381 101.272C104.517 101.016 104.585 100.712 104.585 100.36V96.532H105.713V103H104.621V101.74L104.801 101.848C104.649 102.256 104.389 102.576 104.021 102.808C103.661 103.032 103.245 103.144 102.773 103.144ZM107.202 103V96.532H108.294V97.72L108.174 97.552C108.326 97.184 108.558 96.912 108.87 96.736C109.182 96.552 109.562 96.46 110.01 96.46H110.406V97.516H109.842C109.386 97.516 109.018 97.66 108.738 97.948C108.458 98.228 108.318 98.628 108.318 99.148V103H107.202ZM115.992 103.144C115.36 103.144 114.796 102.996 114.3 102.7C113.812 102.404 113.428 102 113.148 101.488C112.868 100.976 112.728 100.4 112.728 99.76C112.728 99.112 112.868 98.536 113.148 98.032C113.428 97.528 113.812 97.128 114.3 96.832C114.796 96.536 115.36 96.388 115.992 96.388C116.416 96.388 116.812 96.464 117.18 96.616C117.548 96.768 117.872 96.972 118.152 97.228C118.432 97.484 118.636 97.784 118.764 98.128L117.768 98.608C117.616 98.272 117.384 98 117.072 97.792C116.76 97.576 116.4 97.468 115.992 97.468C115.6 97.468 115.244 97.568 114.924 97.768C114.612 97.968 114.364 98.24 114.18 98.584C113.996 98.928 113.904 99.324 113.904 99.772C113.904 100.204 113.996 100.596 114.18 100.948C114.364 101.292 114.612 101.564 114.924 101.764C115.244 101.964 115.6 102.064 115.992 102.064C116.4 102.064 116.76 101.96 117.072 101.752C117.384 101.536 117.616 101.252 117.768 100.9L118.764 101.404C118.636 101.74 118.432 102.04 118.152 102.304C117.872 102.56 117.548 102.764 117.18 102.916C116.812 103.068 116.416 103.144 115.992 103.144ZM119.982 103V96.532H121.098V103H119.982ZM119.982 95.5V94.06H121.098V95.5H119.982ZM125.218 103.072C124.586 103.072 124.098 102.892 123.754 102.532C123.418 102.172 123.25 101.664 123.25 101.008V97.6H122.074V96.532H122.314C122.602 96.532 122.83 96.444 122.998 96.268C123.166 96.092 123.25 95.86 123.25 95.572V95.044H124.366V96.532H125.818V97.6H124.366V100.972C124.366 101.188 124.398 101.376 124.462 101.536C124.534 101.696 124.65 101.824 124.81 101.92C124.97 102.008 125.182 102.052 125.446 102.052C125.502 102.052 125.57 102.048 125.65 102.04C125.738 102.032 125.818 102.024 125.89 102.016V103C125.786 103.024 125.67 103.04 125.542 103.048C125.414 103.064 125.306 103.072 125.218 103.072ZM127.456 105.64C127.312 105.64 127.168 105.628 127.024 105.604C126.88 105.588 126.744 105.552 126.616 105.496V104.5C126.704 104.508 126.812 104.524 126.94 104.548C127.076 104.572 127.208 104.584 127.336 104.584C127.712 104.584 127.996 104.5 128.188 104.332C128.388 104.164 128.576 103.88 128.752 103.48L129.16 102.508L129.136 103.48L126.376 96.532H127.588L129.736 102.052H129.376L131.512 96.532H132.748L129.832 103.768C129.696 104.112 129.52 104.428 129.304 104.716C129.096 105.004 128.84 105.228 128.536 105.388C128.232 105.556 127.872 105.64 127.456 105.64Z" fill="#90A3BF"/>
<path d="M167 100.8C166.592 100.8 166.183 100.642 165.874 100.333L162.071 96.5297C161.902 96.3605 161.902 96.0805 162.071 95.9114C162.24 95.7422 162.52 95.7422 162.689 95.9114L166.493 99.7147C166.773 99.9947 167.228 99.9947 167.508 99.7147L171.311 95.9114C171.48 95.7422 171.76 95.7422 171.929 95.9114C172.098 96.0805 172.098 96.3605 171.929 96.5297L168.126 100.333C167.817 100.642 167.408 100.8 167 100.8Z" fill="#1A202C" stroke="#1A202C" stroke-width="0.5"/>
<line x1="198.5" y1="60.5" x2="198.5" y2="107.5" stroke="#C3D4E9" stroke-opacity="0.4" stroke-linecap="round"/>
<path d="M223.152 77V65.08H227.04C228.299 65.08 229.392 65.336 230.32 65.848C231.259 66.3493 231.984 67.048 232.496 67.944C233.008 68.8293 233.264 69.8587 233.264 71.032C233.264 72.1947 233.008 73.2293 232.496 74.136C231.984 75.032 231.259 75.736 230.32 76.248C229.392 76.7493 228.299 77 227.04 77H223.152ZM225.328 75.08H227.088C227.899 75.08 228.597 74.9147 229.184 74.584C229.781 74.2427 230.245 73.7733 230.576 73.176C230.907 72.568 231.072 71.8533 231.072 71.032C231.072 70.2 230.907 69.4853 230.576 68.888C230.245 68.2907 229.781 67.8267 229.184 67.496C228.597 67.1653 227.899 67 227.088 67H225.328V75.08ZM237.109 77.192C236.501 77.192 235.973 77.0907 235.525 76.888C235.077 76.6853 234.73 76.3973 234.485 76.024C234.239 75.64 234.117 75.1973 234.117 74.696C234.117 74.216 234.223 73.7893 234.437 73.416C234.65 73.032 234.981 72.712 235.429 72.456C235.877 72.2 236.442 72.0187 237.125 71.912L239.973 71.448V73.048L237.525 73.464C237.109 73.5387 236.799 73.672 236.597 73.864C236.394 74.056 236.293 74.3067 236.293 74.616C236.293 74.9147 236.405 75.1547 236.629 75.336C236.863 75.5067 237.151 75.592 237.493 75.592C237.93 75.592 238.314 75.5013 238.645 75.32C238.986 75.128 239.247 74.8667 239.429 74.536C239.621 74.2053 239.717 73.8427 239.717 73.448V71.208C239.717 70.8347 239.567 70.5253 239.269 70.28C238.981 70.024 238.597 69.896 238.117 69.896C237.669 69.896 237.269 70.0187 236.917 70.264C236.575 70.4987 236.325 70.8133 236.165 71.208L234.453 70.376C234.623 69.9173 234.89 69.5227 235.253 69.192C235.626 68.8507 236.063 68.584 236.565 68.392C237.066 68.2 237.61 68.104 238.197 68.104C238.911 68.104 239.541 68.2373 240.085 68.504C240.629 68.76 241.05 69.1227 241.349 69.592C241.658 70.0507 241.813 70.5893 241.813 71.208V77H239.829V75.512L240.277 75.48C240.053 75.8533 239.786 76.168 239.477 76.424C239.167 76.6693 238.815 76.8613 238.421 77C238.026 77.128 237.589 77.192 237.109 77.192ZM247.242 77.096C246.26 77.096 245.498 76.8293 244.954 76.296C244.42 75.752 244.154 74.9893 244.154 74.008V70.168H242.65V68.296H242.81C243.236 68.296 243.567 68.184 243.802 67.96C244.036 67.736 244.154 67.4107 244.154 66.984V66.312H246.25V68.296H248.25V70.168H246.25V73.896C246.25 74.184 246.298 74.4293 246.394 74.632C246.5 74.8347 246.66 74.9893 246.874 75.096C247.098 75.2027 247.38 75.256 247.722 75.256C247.796 75.256 247.882 75.2507 247.978 75.24C248.084 75.2293 248.186 75.2187 248.282 75.208V77C248.132 77.0213 247.962 77.0427 247.77 77.064C247.578 77.0853 247.402 77.096 247.242 77.096ZM253.613 77.192C252.717 77.192 251.933 76.9893 251.261 76.584C250.589 76.1787 250.066 75.6293 249.693 74.936C249.319 74.2427 249.133 73.4747 249.133 72.632C249.133 71.7573 249.319 70.984 249.693 70.312C250.077 69.6293 250.594 69.0907 251.245 68.696C251.906 68.3013 252.642 68.104 253.453 68.104C254.135 68.104 254.733 68.216 255.245 68.44C255.767 68.664 256.21 68.9733 256.573 69.368C256.935 69.7627 257.213 70.216 257.405 70.728C257.597 71.2293 257.693 71.7733 257.693 72.36C257.693 72.5093 257.682 72.664 257.661 72.824C257.65 72.984 257.623 73.1227 257.581 73.24H250.861V71.64H256.397L255.405 72.392C255.501 71.9013 255.474 71.464 255.325 71.08C255.186 70.696 254.951 70.392 254.621 70.168C254.301 69.944 253.911 69.832 253.453 69.832C253.015 69.832 252.626 69.944 252.285 70.168C251.943 70.3813 251.682 70.7013 251.501 71.128C251.33 71.544 251.266 72.0507 251.309 72.648C251.266 73.1813 251.335 73.656 251.517 74.072C251.709 74.4773 251.986 74.792 252.349 75.016C252.722 75.24 253.149 75.352 253.629 75.352C254.109 75.352 254.514 75.2507 254.845 75.048C255.186 74.8453 255.453 74.5733 255.645 74.232L257.341 75.064C257.17 75.48 256.903 75.848 256.541 76.168C256.178 76.488 255.746 76.7387 255.245 76.92C254.754 77.1013 254.21 77.192 253.613 77.192Z" fill="#1A202C"/>
<path d="M226.068 103.144C225.5 103.144 224.98 103.04 224.508 102.832C224.036 102.616 223.636 102.324 223.308 101.956C222.98 101.588 222.744 101.176 222.6 100.72L223.62 100.3C223.836 100.876 224.156 101.32 224.58 101.632C225.012 101.936 225.516 102.088 226.092 102.088C226.444 102.088 226.752 102.032 227.016 101.92C227.28 101.808 227.484 101.652 227.628 101.452C227.78 101.244 227.856 101.004 227.856 100.732C227.856 100.356 227.748 100.06 227.532 99.844C227.324 99.62 227.016 99.452 226.608 99.34L224.964 98.836C224.316 98.636 223.82 98.32 223.476 97.888C223.132 97.456 222.96 96.96 222.96 96.4C222.96 95.912 223.076 95.484 223.308 95.116C223.548 94.74 223.876 94.448 224.292 94.24C224.716 94.024 225.196 93.916 225.732 93.916C226.268 93.916 226.752 94.012 227.184 94.204C227.624 94.396 227.996 94.656 228.3 94.984C228.604 95.304 228.828 95.672 228.972 96.088L227.964 96.508C227.772 96.004 227.484 95.624 227.1 95.368C226.716 95.104 226.264 94.972 225.744 94.972C225.424 94.972 225.14 95.028 224.892 95.14C224.652 95.244 224.464 95.4 224.328 95.608C224.2 95.808 224.136 96.048 224.136 96.328C224.136 96.656 224.24 96.948 224.448 97.204C224.656 97.46 224.972 97.656 225.396 97.792L226.896 98.236C227.6 98.452 228.132 98.76 228.492 99.16C228.852 99.56 229.032 100.056 229.032 100.648C229.032 101.136 228.904 101.568 228.648 101.944C228.4 102.32 228.052 102.616 227.604 102.832C227.164 103.04 226.652 103.144 226.068 103.144ZM233.358 103.144C232.734 103.144 232.178 102.996 231.69 102.7C231.202 102.404 230.818 102 230.538 101.488C230.258 100.968 230.118 100.388 230.118 99.748C230.118 99.1 230.254 98.524 230.526 98.02C230.806 97.516 231.182 97.12 231.654 96.832C232.134 96.536 232.67 96.388 233.262 96.388C233.742 96.388 234.166 96.476 234.534 96.652C234.91 96.82 235.226 97.052 235.482 97.348C235.746 97.636 235.946 97.968 236.082 98.344C236.226 98.712 236.298 99.096 236.298 99.496C236.298 99.584 236.29 99.684 236.274 99.796C236.266 99.9 236.254 100 236.238 100.096H230.934V99.136H235.59L235.062 99.568C235.134 99.152 235.094 98.78 234.942 98.452C234.79 98.124 234.566 97.864 234.27 97.672C233.974 97.48 233.638 97.384 233.262 97.384C232.886 97.384 232.542 97.48 232.23 97.672C231.918 97.864 231.674 98.14 231.498 98.5C231.33 98.852 231.262 99.272 231.294 99.76C231.262 100.232 231.334 100.648 231.51 101.008C231.694 101.36 231.95 101.636 232.278 101.836C232.614 102.028 232.978 102.124 233.37 102.124C233.802 102.124 234.166 102.024 234.462 101.824C234.758 101.624 234.998 101.368 235.182 101.056L236.118 101.536C235.99 101.832 235.79 102.104 235.518 102.352C235.254 102.592 234.938 102.784 234.57 102.928C234.21 103.072 233.806 103.144 233.358 103.144ZM237.513 103V93.916H238.629V103H237.513ZM243.097 103.144C242.473 103.144 241.917 102.996 241.429 102.7C240.941 102.404 240.557 102 240.277 101.488C239.997 100.968 239.857 100.388 239.857 99.748C239.857 99.1 239.993 98.524 240.265 98.02C240.545 97.516 240.921 97.12 241.393 96.832C241.873 96.536 242.409 96.388 243.001 96.388C243.481 96.388 243.905 96.476 244.273 96.652C244.649 96.82 244.965 97.052 245.221 97.348C245.485 97.636 245.685 97.968 245.821 98.344C245.965 98.712 246.037 99.096 246.037 99.496C246.037 99.584 246.029 99.684 246.013 99.796C246.005 99.9 245.993 100 245.977 100.096H240.673V99.136H245.329L244.801 99.568C244.873 99.152 244.833 98.78 244.681 98.452C244.529 98.124 244.305 97.864 244.009 97.672C243.713 97.48 243.377 97.384 243.001 97.384C242.625 97.384 242.281 97.48 241.969 97.672C241.657 97.864 241.413 98.14 241.237 98.5C241.069 98.852 241.001 99.272 241.033 99.76C241.001 100.232 241.073 100.648 241.249 101.008C241.433 101.36 241.689 101.636 242.017 101.836C242.353 102.028 242.717 102.124 243.109 102.124C243.541 102.124 243.905 102.024 244.201 101.824C244.497 101.624 244.737 101.368 244.921 101.056L245.857 101.536C245.729 101.832 245.529 102.104 245.257 102.352C244.993 102.592 244.677 102.784 244.309 102.928C243.949 103.072 243.545 103.144 243.097 103.144ZM250.252 103.144C249.62 103.144 249.056 102.996 248.56 102.7C248.072 102.404 247.688 102 247.408 101.488C247.128 100.976 246.988 100.4 246.988 99.76C246.988 99.112 247.128 98.536 247.408 98.032C247.688 97.528 248.072 97.128 248.56 96.832C249.056 96.536 249.62 96.388 250.252 96.388C250.676 96.388 251.072 96.464 251.44 96.616C251.808 96.768 252.132 96.972 252.412 97.228C252.692 97.484 252.896 97.784 253.024 98.128L252.028 98.608C251.876 98.272 251.644 98 251.332 97.792C251.02 97.576 250.66 97.468 250.252 97.468C249.86 97.468 249.504 97.568 249.184 97.768C248.872 97.968 248.624 98.24 248.44 98.584C248.256 98.928 248.164 99.324 248.164 99.772C248.164 100.204 248.256 100.596 248.44 100.948C248.624 101.292 248.872 101.564 249.184 101.764C249.504 101.964 249.86 102.064 250.252 102.064C250.66 102.064 251.02 101.96 251.332 101.752C251.644 101.536 251.876 101.252 252.028 100.9L253.024 101.404C252.896 101.74 252.692 102.04 252.412 102.304C252.132 102.56 251.808 102.764 251.44 102.916C251.072 103.068 250.676 103.144 250.252 103.144ZM256.87 103.072C256.238 103.072 255.75 102.892 255.406 102.532C255.07 102.172 254.902 101.664 254.902 101.008V97.6H253.726V96.532H253.966C254.254 96.532 254.482 96.444 254.65 96.268C254.818 96.092 254.902 95.86 254.902 95.572V95.044H256.018V96.532H257.47V97.6H256.018V100.972C256.018 101.188 256.05 101.376 256.114 101.536C256.186 101.696 256.302 101.824 256.462 101.92C256.622 102.008 256.834 102.052 257.098 102.052C257.154 102.052 257.222 102.048 257.302 102.04C257.39 102.032 257.47 102.024 257.542 102.016V103C257.438 103.024 257.322 103.04 257.194 103.048C257.066 103.064 256.958 103.072 256.87 103.072ZM260.942 105.64C260.798 105.64 260.654 105.628 260.51 105.604C260.366 105.588 260.23 105.552 260.102 105.496V104.5C260.19 104.508 260.298 104.524 260.426 104.548C260.562 104.572 260.694 104.584 260.822 104.584C261.198 104.584 261.482 104.5 261.674 104.332C261.874 104.164 262.062 103.88 262.238 103.48L262.646 102.508L262.622 103.48L259.862 96.532H261.074L263.222 102.052H262.862L264.998 96.532H266.234L263.318 103.768C263.182 104.112 263.006 104.428 262.79 104.716C262.582 105.004 262.326 105.228 262.022 105.388C261.718 105.556 261.358 105.64 260.942 105.64ZM269.942 103.144C269.318 103.144 268.754 103 268.25 102.712C267.746 102.416 267.346 102.012 267.05 101.5C266.754 100.988 266.606 100.408 266.606 99.76C266.606 99.112 266.75 98.536 267.038 98.032C267.334 97.528 267.734 97.128 268.238 96.832C268.742 96.536 269.31 96.388 269.942 96.388C270.566 96.388 271.13 96.536 271.634 96.832C272.138 97.12 272.534 97.516 272.822 98.02C273.118 98.524 273.266 99.104 273.266 99.76C273.266 100.416 273.114 101 272.81 101.512C272.506 102.016 272.102 102.416 271.598 102.712C271.102 103 270.55 103.144 269.942 103.144ZM269.942 102.064C270.342 102.064 270.702 101.964 271.022 101.764C271.35 101.564 271.606 101.288 271.79 100.936C271.982 100.584 272.078 100.192 272.078 99.76C272.078 99.32 271.982 98.932 271.79 98.596C271.606 98.252 271.35 97.98 271.022 97.78C270.702 97.572 270.342 97.468 269.942 97.468C269.534 97.468 269.166 97.572 268.838 97.78C268.518 97.98 268.262 98.252 268.07 98.596C267.878 98.932 267.782 99.32 267.782 99.76C267.782 100.192 267.878 100.584 268.07 100.936C268.262 101.288 268.518 101.564 268.838 101.764C269.166 101.964 269.534 102.064 269.942 102.064ZM276.773 103.144C276.309 103.144 275.889 103.036 275.513 102.82C275.145 102.604 274.857 102.304 274.649 101.92C274.449 101.528 274.349 101.08 274.349 100.576V96.532H275.465V100.456C275.465 100.776 275.529 101.056 275.657 101.296C275.793 101.536 275.977 101.724 276.209 101.86C276.449 101.996 276.721 102.064 277.025 102.064C277.329 102.064 277.597 101.996 277.829 101.86C278.069 101.724 278.253 101.528 278.381 101.272C278.517 101.016 278.585 100.712 278.585 100.36V96.532H279.713V103H278.621V101.74L278.801 101.848C278.649 102.256 278.389 102.576 278.021 102.808C277.661 103.032 277.245 103.144 276.773 103.144ZM281.202 103V96.532H282.294V97.72L282.174 97.552C282.326 97.184 282.558 96.912 282.87 96.736C283.182 96.552 283.562 96.46 284.01 96.46H284.406V97.516H283.842C283.386 97.516 283.018 97.66 282.738 97.948C282.458 98.228 282.318 98.628 282.318 99.148V103H281.202ZM289.932 103.144C289.324 103.144 288.776 102.996 288.288 102.7C287.808 102.404 287.428 102 287.148 101.488C286.868 100.976 286.728 100.404 286.728 99.772C286.728 99.124 286.868 98.548 287.148 98.044C287.428 97.532 287.808 97.128 288.288 96.832C288.776 96.536 289.324 96.388 289.932 96.388C290.468 96.388 290.944 96.504 291.36 96.736C291.776 96.96 292.104 97.264 292.344 97.648L292.164 97.924V93.916H293.292V103H292.2V101.62L292.344 101.812C292.12 102.236 291.792 102.564 291.36 102.796C290.936 103.028 290.46 103.144 289.932 103.144ZM290.028 102.064C290.436 102.064 290.8 101.964 291.12 101.764C291.44 101.564 291.692 101.292 291.876 100.948C292.068 100.596 292.164 100.204 292.164 99.772C292.164 99.332 292.068 98.94 291.876 98.596C291.692 98.244 291.44 97.968 291.12 97.768C290.8 97.568 290.436 97.468 290.028 97.468C289.628 97.468 289.264 97.572 288.936 97.78C288.616 97.98 288.364 98.252 288.18 98.596C287.996 98.932 287.904 99.324 287.904 99.772C287.904 100.204 287.996 100.596 288.18 100.948C288.364 101.292 288.616 101.564 288.936 101.764C289.256 101.964 289.62 102.064 290.028 102.064ZM296.675 103.144C296.251 103.144 295.875 103.068 295.547 102.916C295.227 102.756 294.975 102.54 294.791 102.268C294.607 101.988 294.515 101.668 294.515 101.308C294.515 100.964 294.587 100.656 294.731 100.384C294.883 100.104 295.115 99.868 295.427 99.676C295.747 99.484 296.147 99.348 296.627 99.268L299.027 98.872V99.808L296.879 100.168C296.463 100.24 296.159 100.372 295.967 100.564C295.783 100.756 295.691 100.992 295.691 101.272C295.691 101.536 295.795 101.756 296.003 101.932C296.219 102.108 296.487 102.196 296.807 102.196C297.215 102.196 297.567 102.112 297.863 101.944C298.167 101.768 298.403 101.532 298.571 101.236C298.747 100.94 298.835 100.612 298.835 100.252V98.608C298.835 98.256 298.703 97.972 298.439 97.756C298.183 97.532 297.843 97.42 297.419 97.42C297.051 97.42 296.723 97.516 296.435 97.708C296.155 97.892 295.947 98.14 295.811 98.452L294.839 97.948C294.959 97.652 295.151 97.388 295.415 97.156C295.679 96.916 295.987 96.728 296.339 96.592C296.691 96.456 297.059 96.388 297.443 96.388C297.939 96.388 298.375 96.484 298.751 96.676C299.127 96.86 299.419 97.12 299.627 97.456C299.843 97.784 299.951 98.168 299.951 98.608V103H298.859V101.776L299.063 101.848C298.927 102.104 298.743 102.328 298.511 102.52C298.279 102.712 298.007 102.864 297.695 102.976C297.383 103.088 297.043 103.144 296.675 103.144ZM303.952 103.072C303.32 103.072 302.832 102.892 302.488 102.532C302.152 102.172 301.984 101.664 301.984 101.008V97.6H300.808V96.532H301.048C301.336 96.532 301.564 96.444 301.732 96.268C301.9 96.092 301.984 95.86 301.984 95.572V95.044H303.1V96.532H304.552V97.6H303.1V100.972C303.1 101.188 303.132 101.376 303.196 101.536C303.268 101.696 303.384 101.824 303.544 101.92C303.704 102.008 303.916 102.052 304.18 102.052C304.236 102.052 304.304 102.048 304.384 102.04C304.472 102.032 304.552 102.024 304.624 102.016V103C304.52 103.024 304.404 103.04 304.276 103.048C304.148 103.064 304.04 103.072 303.952 103.072ZM308.642 103.144C308.018 103.144 307.462 102.996 306.974 102.7C306.486 102.404 306.102 102 305.822 101.488C305.542 100.968 305.402 100.388 305.402 99.748C305.402 99.1 305.538 98.524 305.81 98.02C306.09 97.516 306.466 97.12 306.938 96.832C307.418 96.536 307.954 96.388 308.546 96.388C309.026 96.388 309.45 96.476 309.818 96.652C310.194 96.82 310.51 97.052 310.766 97.348C311.03 97.636 311.23 97.968 311.366 98.344C311.51 98.712 311.582 99.096 311.582 99.496C311.582 99.584 311.574 99.684 311.558 99.796C311.55 99.9 311.538 100 311.522 100.096H306.218V99.136H310.874L310.346 99.568C310.418 99.152 310.378 98.78 310.226 98.452C310.074 98.124 309.85 97.864 309.554 97.672C309.258 97.48 308.922 97.384 308.546 97.384C308.17 97.384 307.826 97.48 307.514 97.672C307.202 97.864 306.958 98.14 306.782 98.5C306.614 98.852 306.546 99.272 306.578 99.76C306.546 100.232 306.618 100.648 306.794 101.008C306.978 101.36 307.234 101.636 307.562 101.836C307.898 102.028 308.262 102.124 308.654 102.124C309.086 102.124 309.45 102.024 309.746 101.824C310.042 101.624 310.282 101.368 310.466 101.056L311.402 101.536C311.274 101.832 311.074 102.104 310.802 102.352C310.538 102.592 310.222 102.784 309.854 102.928C309.494 103.072 309.09 103.144 308.642 103.144Z" fill="#90A3BF"/>
<path d="M349 100.8C348.592 100.8 348.183 100.642 347.874 100.333L344.071 96.5297C343.902 96.3605 343.902 96.0805 344.071 95.9114C344.24 95.7422 344.52 95.7422 344.689 95.9114L348.493 99.7147C348.773 99.9947 349.228 99.9947 349.508 99.7147L353.311 95.9114C353.48 95.7422 353.76 95.7422 353.929 95.9114C354.098 96.0805 354.098 96.3605 353.929 96.5297L350.126 100.333C349.817 100.642 349.408 100.8 349 100.8Z" fill="#1A202C" stroke="#1A202C" stroke-width="0.5"/>
<line x1="380.5" y1="60.5" x2="380.5" y2="107.5" stroke="#C3D4E9" stroke-opacity="0.4" stroke-linecap="round"/>
<path d="M407.264 77V67H404.176V65.08H412.496V67H409.456V77H407.264ZM413.328 77V68.296H415.424V77H413.328ZM413.328 67.32V65.08H415.424V67.32H413.328ZM417.039 77V68.296H419.007V70.312L418.783 69.976C418.943 69.3467 419.263 68.8773 419.743 68.568C420.223 68.2587 420.788 68.104 421.439 68.104C422.154 68.104 422.783 68.2907 423.327 68.664C423.871 69.0373 424.223 69.528 424.383 70.136L423.791 70.184C424.058 69.4907 424.458 68.9733 424.991 68.632C425.524 68.28 426.138 68.104 426.831 68.104C427.45 68.104 427.999 68.2427 428.479 68.52C428.97 68.7973 429.354 69.1867 429.631 69.688C429.908 70.1787 430.047 70.7493 430.047 71.4V77H427.951V71.896C427.951 71.512 427.882 71.1813 427.743 70.904C427.604 70.6267 427.412 70.4133 427.167 70.264C426.922 70.104 426.623 70.024 426.271 70.024C425.94 70.024 425.647 70.104 425.391 70.264C425.135 70.4133 424.938 70.6267 424.799 70.904C424.66 71.1813 424.591 71.512 424.591 71.896V77H422.495V71.896C422.495 71.512 422.426 71.1813 422.287 70.904C422.148 70.6267 421.951 70.4133 421.695 70.264C421.45 70.104 421.156 70.024 420.815 70.024C420.484 70.024 420.191 70.104 419.935 70.264C419.679 70.4133 419.482 70.6267 419.343 70.904C419.204 71.1813 419.135 71.512 419.135 71.896V77H417.039ZM435.628 77.192C434.732 77.192 433.948 76.9893 433.276 76.584C432.604 76.1787 432.082 75.6293 431.708 74.936C431.335 74.2427 431.148 73.4747 431.148 72.632C431.148 71.7573 431.335 70.984 431.708 70.312C432.092 69.6293 432.61 69.0907 433.26 68.696C433.922 68.3013 434.658 68.104 435.468 68.104C436.151 68.104 436.748 68.216 437.26 68.44C437.783 68.664 438.226 68.9733 438.588 69.368C438.951 69.7627 439.228 70.216 439.42 70.728C439.612 71.2293 439.708 71.7733 439.708 72.36C439.708 72.5093 439.698 72.664 439.676 72.824C439.666 72.984 439.639 73.1227 439.596 73.24H432.876V71.64H438.412L437.42 72.392C437.516 71.9013 437.49 71.464 437.34 71.08C437.202 70.696 436.967 70.392 436.636 70.168C436.316 69.944 435.927 69.832 435.468 69.832C435.031 69.832 434.642 69.944 434.3 70.168C433.959 70.3813 433.698 70.7013 433.516 71.128C433.346 71.544 433.282 72.0507 433.324 72.648C433.282 73.1813 433.351 73.656 433.532 74.072C433.724 74.4773 434.002 74.792 434.364 75.016C434.738 75.24 435.164 75.352 435.644 75.352C436.124 75.352 436.53 75.2507 436.86 75.048C437.202 74.8453 437.468 74.5733 437.66 74.232L439.356 75.064C439.186 75.48 438.919 75.848 438.556 76.168C438.194 76.488 437.762 76.7387 437.26 76.92C436.77 77.1013 436.226 77.192 435.628 77.192Z" fill="#1A202C"/>
<path d="M408.068 103.144C407.5 103.144 406.98 103.04 406.508 102.832C406.036 102.616 405.636 102.324 405.308 101.956C404.98 101.588 404.744 101.176 404.6 100.72L405.62 100.3C405.836 100.876 406.156 101.32 406.58 101.632C407.012 101.936 407.516 102.088 408.092 102.088C408.444 102.088 408.752 102.032 409.016 101.92C409.28 101.808 409.484 101.652 409.628 101.452C409.78 101.244 409.856 101.004 409.856 100.732C409.856 100.356 409.748 100.06 409.532 99.844C409.324 99.62 409.016 99.452 408.608 99.34L406.964 98.836C406.316 98.636 405.82 98.32 405.476 97.888C405.132 97.456 404.96 96.96 404.96 96.4C404.96 95.912 405.076 95.484 405.308 95.116C405.548 94.74 405.876 94.448 406.292 94.24C406.716 94.024 407.196 93.916 407.732 93.916C408.268 93.916 408.752 94.012 409.184 94.204C409.624 94.396 409.996 94.656 410.3 94.984C410.604 95.304 410.828 95.672 410.972 96.088L409.964 96.508C409.772 96.004 409.484 95.624 409.1 95.368C408.716 95.104 408.264 94.972 407.744 94.972C407.424 94.972 407.14 95.028 406.892 95.14C406.652 95.244 406.464 95.4 406.328 95.608C406.2 95.808 406.136 96.048 406.136 96.328C406.136 96.656 406.24 96.948 406.448 97.204C406.656 97.46 406.972 97.656 407.396 97.792L408.896 98.236C409.6 98.452 410.132 98.76 410.492 99.16C410.852 99.56 411.032 100.056 411.032 100.648C411.032 101.136 410.904 101.568 410.648 101.944C410.4 102.32 410.052 102.616 409.604 102.832C409.164 103.04 408.652 103.144 408.068 103.144ZM415.358 103.144C414.734 103.144 414.178 102.996 413.69 102.7C413.202 102.404 412.818 102 412.538 101.488C412.258 100.968 412.118 100.388 412.118 99.748C412.118 99.1 412.254 98.524 412.526 98.02C412.806 97.516 413.182 97.12 413.654 96.832C414.134 96.536 414.67 96.388 415.262 96.388C415.742 96.388 416.166 96.476 416.534 96.652C416.91 96.82 417.226 97.052 417.482 97.348C417.746 97.636 417.946 97.968 418.082 98.344C418.226 98.712 418.298 99.096 418.298 99.496C418.298 99.584 418.29 99.684 418.274 99.796C418.266 99.9 418.254 100 418.238 100.096H412.934V99.136H417.59L417.062 99.568C417.134 99.152 417.094 98.78 416.942 98.452C416.79 98.124 416.566 97.864 416.27 97.672C415.974 97.48 415.638 97.384 415.262 97.384C414.886 97.384 414.542 97.48 414.23 97.672C413.918 97.864 413.674 98.14 413.498 98.5C413.33 98.852 413.262 99.272 413.294 99.76C413.262 100.232 413.334 100.648 413.51 101.008C413.694 101.36 413.95 101.636 414.278 101.836C414.614 102.028 414.978 102.124 415.37 102.124C415.802 102.124 416.166 102.024 416.462 101.824C416.758 101.624 416.998 101.368 417.182 101.056L418.118 101.536C417.99 101.832 417.79 102.104 417.518 102.352C417.254 102.592 416.938 102.784 416.57 102.928C416.21 103.072 415.806 103.144 415.358 103.144ZM419.513 103V93.916H420.629V103H419.513ZM425.097 103.144C424.473 103.144 423.917 102.996 423.429 102.7C422.941 102.404 422.557 102 422.277 101.488C421.997 100.968 421.857 100.388 421.857 99.748C421.857 99.1 421.993 98.524 422.265 98.02C422.545 97.516 422.921 97.12 423.393 96.832C423.873 96.536 424.409 96.388 425.001 96.388C425.481 96.388 425.905 96.476 426.273 96.652C426.649 96.82 426.965 97.052 427.221 97.348C427.485 97.636 427.685 97.968 427.821 98.344C427.965 98.712 428.037 99.096 428.037 99.496C428.037 99.584 428.029 99.684 428.013 99.796C428.005 99.9 427.993 100 427.977 100.096H422.673V99.136H427.329L426.801 99.568C426.873 99.152 426.833 98.78 426.681 98.452C426.529 98.124 426.305 97.864 426.009 97.672C425.713 97.48 425.377 97.384 425.001 97.384C424.625 97.384 424.281 97.48 423.969 97.672C423.657 97.864 423.413 98.14 423.237 98.5C423.069 98.852 423.001 99.272 423.033 99.76C423.001 100.232 423.073 100.648 423.249 101.008C423.433 101.36 423.689 101.636 424.017 101.836C424.353 102.028 424.717 102.124 425.109 102.124C425.541 102.124 425.905 102.024 426.201 101.824C426.497 101.624 426.737 101.368 426.921 101.056L427.857 101.536C427.729 101.832 427.529 102.104 427.257 102.352C426.993 102.592 426.677 102.784 426.309 102.928C425.949 103.072 425.545 103.144 425.097 103.144ZM432.252 103.144C431.62 103.144 431.056 102.996 430.56 102.7C430.072 102.404 429.688 102 429.408 101.488C429.128 100.976 428.988 100.4 428.988 99.76C428.988 99.112 429.128 98.536 429.408 98.032C429.688 97.528 430.072 97.128 430.56 96.832C431.056 96.536 431.62 96.388 432.252 96.388C432.676 96.388 433.072 96.464 433.44 96.616C433.808 96.768 434.132 96.972 434.412 97.228C434.692 97.484 434.896 97.784 435.024 98.128L434.028 98.608C433.876 98.272 433.644 98 433.332 97.792C433.02 97.576 432.66 97.468 432.252 97.468C431.86 97.468 431.504 97.568 431.184 97.768C430.872 97.968 430.624 98.24 430.44 98.584C430.256 98.928 430.164 99.324 430.164 99.772C430.164 100.204 430.256 100.596 430.44 100.948C430.624 101.292 430.872 101.564 431.184 101.764C431.504 101.964 431.86 102.064 432.252 102.064C432.66 102.064 433.02 101.96 433.332 101.752C433.644 101.536 433.876 101.252 434.028 100.9L435.024 101.404C434.896 101.74 434.692 102.04 434.412 102.304C434.132 102.56 433.808 102.764 433.44 102.916C433.072 103.068 432.676 103.144 432.252 103.144ZM438.87 103.072C438.238 103.072 437.75 102.892 437.406 102.532C437.07 102.172 436.902 101.664 436.902 101.008V97.6H435.726V96.532H435.966C436.254 96.532 436.482 96.444 436.65 96.268C436.818 96.092 436.902 95.86 436.902 95.572V95.044H438.018V96.532H439.47V97.6H438.018V100.972C438.018 101.188 438.05 101.376 438.114 101.536C438.186 101.696 438.302 101.824 438.462 101.92C438.622 102.008 438.834 102.052 439.098 102.052C439.154 102.052 439.222 102.048 439.302 102.04C439.39 102.032 439.47 102.024 439.542 102.016V103C439.438 103.024 439.322 103.04 439.194 103.048C439.066 103.064 438.958 103.072 438.87 103.072ZM442.942 105.64C442.798 105.64 442.654 105.628 442.51 105.604C442.366 105.588 442.23 105.552 442.102 105.496V104.5C442.19 104.508 442.298 104.524 442.426 104.548C442.562 104.572 442.694 104.584 442.822 104.584C443.198 104.584 443.482 104.5 443.674 104.332C443.874 104.164 444.062 103.88 444.238 103.48L444.646 102.508L444.622 103.48L441.862 96.532H443.074L445.222 102.052H444.862L446.998 96.532H448.234L445.318 103.768C445.182 104.112 445.006 104.428 444.79 104.716C444.582 105.004 444.326 105.228 444.022 105.388C443.718 105.556 443.358 105.64 442.942 105.64ZM451.942 103.144C451.318 103.144 450.754 103 450.25 102.712C449.746 102.416 449.346 102.012 449.05 101.5C448.754 100.988 448.606 100.408 448.606 99.76C448.606 99.112 448.75 98.536 449.038 98.032C449.334 97.528 449.734 97.128 450.238 96.832C450.742 96.536 451.31 96.388 451.942 96.388C452.566 96.388 453.13 96.536 453.634 96.832C454.138 97.12 454.534 97.516 454.822 98.02C455.118 98.524 455.266 99.104 455.266 99.76C455.266 100.416 455.114 101 454.81 101.512C454.506 102.016 454.102 102.416 453.598 102.712C453.102 103 452.55 103.144 451.942 103.144ZM451.942 102.064C452.342 102.064 452.702 101.964 453.022 101.764C453.35 101.564 453.606 101.288 453.79 100.936C453.982 100.584 454.078 100.192 454.078 99.76C454.078 99.32 453.982 98.932 453.79 98.596C453.606 98.252 453.35 97.98 453.022 97.78C452.702 97.572 452.342 97.468 451.942 97.468C451.534 97.468 451.166 97.572 450.838 97.78C450.518 97.98 450.262 98.252 450.07 98.596C449.878 98.932 449.782 99.32 449.782 99.76C449.782 100.192 449.878 100.584 450.07 100.936C450.262 101.288 450.518 101.564 450.838 101.764C451.166 101.964 451.534 102.064 451.942 102.064ZM458.773 103.144C458.309 103.144 457.889 103.036 457.513 102.82C457.145 102.604 456.857 102.304 456.649 101.92C456.449 101.528 456.349 101.08 456.349 100.576V96.532H457.465V100.456C457.465 100.776 457.529 101.056 457.657 101.296C457.793 101.536 457.977 101.724 458.209 101.86C458.449 101.996 458.721 102.064 459.025 102.064C459.329 102.064 459.597 101.996 459.829 101.86C460.069 101.724 460.253 101.528 460.381 101.272C460.517 101.016 460.585 100.712 460.585 100.36V96.532H461.713V103H460.621V101.74L460.801 101.848C460.649 102.256 460.389 102.576 460.021 102.808C459.661 103.032 459.245 103.144 458.773 103.144ZM463.202 103V96.532H464.294V97.72L464.174 97.552C464.326 97.184 464.558 96.912 464.87 96.736C465.182 96.552 465.562 96.46 466.01 96.46H466.406V97.516H465.842C465.386 97.516 465.018 97.66 464.738 97.948C464.458 98.228 464.318 98.628 464.318 99.148V103H463.202ZM471.62 103.072C470.988 103.072 470.5 102.892 470.156 102.532C469.82 102.172 469.652 101.664 469.652 101.008V97.6H468.476V96.532H468.716C469.004 96.532 469.232 96.444 469.4 96.268C469.568 96.092 469.652 95.86 469.652 95.572V95.044H470.768V96.532H472.22V97.6H470.768V100.972C470.768 101.188 470.8 101.376 470.864 101.536C470.936 101.696 471.052 101.824 471.212 101.92C471.372 102.008 471.584 102.052 471.848 102.052C471.904 102.052 471.972 102.048 472.052 102.04C472.14 102.032 472.22 102.024 472.292 102.016V103C472.188 103.024 472.072 103.04 471.944 103.048C471.816 103.064 471.708 103.072 471.62 103.072ZM473.51 103V96.532H474.626V103H473.51ZM473.51 95.5V94.06H474.626V95.5H473.51ZM476.117 103V96.532H477.209V97.852L477.053 97.648C477.213 97.24 477.469 96.928 477.821 96.712C478.173 96.496 478.569 96.388 479.009 96.388C479.513 96.388 479.965 96.528 480.365 96.808C480.773 97.088 481.053 97.456 481.205 97.912L480.893 97.924C481.061 97.42 481.345 97.04 481.745 96.784C482.145 96.52 482.589 96.388 483.077 96.388C483.525 96.388 483.929 96.492 484.289 96.7C484.657 96.908 484.949 97.196 485.165 97.564C485.381 97.932 485.489 98.348 485.489 98.812V103H484.361V99.172C484.361 98.812 484.297 98.508 484.169 98.26C484.041 98.012 483.865 97.82 483.641 97.684C483.425 97.54 483.169 97.468 482.873 97.468C482.585 97.468 482.325 97.54 482.093 97.684C481.869 97.82 481.689 98.016 481.553 98.272C481.425 98.52 481.361 98.82 481.361 99.172V103H480.233V99.172C480.233 98.812 480.169 98.508 480.041 98.26C479.913 98.012 479.737 97.82 479.513 97.684C479.297 97.54 479.041 97.468 478.745 97.468C478.457 97.468 478.197 97.54 477.965 97.684C477.741 97.82 477.561 98.016 477.425 98.272C477.297 98.52 477.233 98.82 477.233 99.172V103H476.117ZM489.81 103.144C489.186 103.144 488.63 102.996 488.142 102.7C487.654 102.404 487.27 102 486.99 101.488C486.71 100.968 486.57 100.388 486.57 99.748C486.57 99.1 486.706 98.524 486.978 98.02C487.258 97.516 487.634 97.12 488.106 96.832C488.586 96.536 489.122 96.388 489.714 96.388C490.194 96.388 490.618 96.476 490.986 96.652C491.362 96.82 491.678 97.052 491.934 97.348C492.198 97.636 492.398 97.968 492.534 98.344C492.678 98.712 492.75 99.096 492.75 99.496C492.75 99.584 492.742 99.684 492.726 99.796C492.718 99.9 492.706 100 492.69 100.096H487.386V99.136H492.042L491.514 99.568C491.586 99.152 491.546 98.78 491.394 98.452C491.242 98.124 491.018 97.864 490.722 97.672C490.426 97.48 490.09 97.384 489.714 97.384C489.338 97.384 488.994 97.48 488.682 97.672C488.37 97.864 488.126 98.14 487.95 98.5C487.782 98.852 487.714 99.272 487.746 99.76C487.714 100.232 487.786 100.648 487.962 101.008C488.146 101.36 488.402 101.636 488.73 101.836C489.066 102.028 489.43 102.124 489.822 102.124C490.254 102.124 490.618 102.024 490.914 101.824C491.21 101.624 491.45 101.368 491.634 101.056L492.57 101.536C492.442 101.832 492.242 102.104 491.97 102.352C491.706 102.592 491.39 102.784 491.022 102.928C490.662 103.072 490.258 103.144 489.81 103.144Z" fill="#90A3BF"/>
<path d="M527 100.8C526.592 100.8 526.183 100.642 525.874 100.333L522.071 96.5297C521.902 96.3605 521.902 96.0805 522.071 95.9114C522.24 95.7422 522.52 95.7422 522.689 95.9114L526.493 99.7147C526.773 99.9947 527.228 99.9947 527.508 99.7147L531.311 95.9114C531.48 95.7422 531.76 95.7422 531.929 95.9114C532.098 96.0805 532.098 96.3605 531.929 96.5297L528.126 100.333C527.817 100.642 527.408 100.8 527 100.8Z" fill="#1A202C" stroke="#1A202C" stroke-width="0.5"/>
</g>
<defs>
<clipPath id="clip0_44_14974">
<rect width="582" height="132" rx="10" fill="white"/>
</clipPath>
</defs>
</svg>
